<svg width="1024" height="1024" viewBox="0 0 1024 1024" fill="none" xmlns="http://www.w3.org/2000/svg">
<path d="M543.318 633C557.854 633 569.637 644.783 569.637 659.318V738.147C569.637 752.683 557.854 764.466 543.318 764.466C528.783 764.466 517 752.683 517 738.147V659.318C517 644.783 528.783 633 543.318 633ZM403.351 584.223C413.629 573.945 430.292 573.945 440.57 584.223C450.848 594.501 450.848 611.164 440.57 621.442L384.83 677.184C374.552 687.461 357.888 687.461 347.61 677.184C337.332 666.906 337.332 650.242 347.61 639.964L403.351 584.223ZM363.147 455C377.683 455 389.466 466.783 389.466 481.318C389.466 495.854 377.683 507.637 363.147 507.637H284.318C269.783 507.637 258 495.854 258 481.318C258 466.783 269.783 455 284.318 455H363.147Z" fill="#003746"/>
</svg>
