<svg width="1024" height="1024" viewBox="0 0 1024 1024" fill="none" xmlns="http://www.w3.org/2000/svg">
<path d="M665.048 500.91C672.581 517.687 655.387 534.881 638.611 527.348L609.216 514.149L606.303 512.852L605.435 513.721C597.624 521.531 584.961 521.531 577.15 513.721L528.974 465.544L510.443 446.657C502.76 438.825 502.82 426.266 510.577 418.508L510.924 418.161L509.312 414.245L496.112 384.85C488.579 368.074 505.774 350.879 522.55 358.412L551.945 371.612L563.509 341.328C570.139 323.965 594.799 324.245 601.034 341.753L611.352 370.727L644.371 355.125C659.647 347.907 675.554 363.813 668.335 379.09L652.734 412.108L681.708 422.426C699.216 428.661 699.495 453.321 682.133 459.951L651.849 471.515L665.048 500.91Z" fill="#003746"/>
</svg>
