<svg width="1024" height="1024" viewBox="0 0 1024 1024" fill="none" xmlns="http://www.w3.org/2000/svg">
<path d="M1024 1024H0V0H1024V1024ZM260.715 131.354C184.476 131.354 122.672 193.158 122.672 269.396V753.862C122.672 830.101 184.476 891.905 260.715 891.905H456.604C463.502 891.905 469.095 886.313 469.095 879.415V143.844C469.095 136.946 463.502 131.354 456.604 131.354H260.715ZM561.124 131.354C554.226 131.354 548.634 136.946 548.634 143.844V879.415C548.634 886.313 554.226 891.905 561.124 891.905H760.958C837.197 891.905 899 830.101 899 753.862V269.396C899 193.158 837.197 131.354 760.958 131.354H561.124Z" fill="#5D2700"/>
</svg>
