<svg width="200" height="267" viewBox="0 0 200 267" fill="none" xmlns="http://www.w3.org/2000/svg">
<path d="M121.433 13.1661C127.968 -4.02312 152.285 -4.02311 158.821 13.1662L174.209 53.6352L175.5 57H179.5C190.546 57 199.5 65.9543 199.5 77V156.637L199.19 189.136C199.085 200.107 190.162 208.945 179.191 208.945H176.05L174.209 213.365L158.821 253.834C152.285 271.023 127.968 271.023 121.433 253.834L106.045 213.365L66.1313 231.219C49.166 238.808 31.9264 221.173 39.8977 204.384L57.8464 166.581L12.8037 150.446C-3.10247 144.747 -3.10243 122.253 12.8038 116.554L57.8464 100.419L39.8977 62.6156C31.9264 45.8266 49.166 28.1919 66.1313 35.7809L106.045 53.6352L121.433 13.1661Z" fill="#00053C"/>
</svg>
